<svg data-v-fde0c5aa="" xmlns="http://www.w3.org/2000/svg" viewBox="0 0 300 300" class="iconLeft"><!----><defs data-v-fde0c5aa=""><!----></defs><rect data-v-fde0c5aa="" fill="#ECE0E8" x="0" y="0" width="300px" height="300px" class="logo-background-square"></rect><defs data-v-fde0c5aa=""><!----></defs><g data-v-fde0c5aa="" id="fcd67cc7-c418-4319-b705-405be768f9d6" fill="#230A1B" transform="matrix(5.010893195287958,0,0,5.010893195287958,123.20261869562934,109.06100101750654)"><path d="M7.41 10.36L8.29 10.36L8.23 12.39L8.23 12.39Q7.56 12.75 6.85 12.91L6.85 12.91L6.85 12.91Q6.15 13.06 5.40 13.06L5.40 13.06L5.40 13.06Q4.34 13.06 3.46 12.71L3.46 12.71L3.46 12.71Q2.59 12.35 1.97 11.70L1.97 11.70L1.97 11.70Q1.34 11.05 1.00 10.15L1.00 10.15L1.00 10.15Q0.66 9.25 0.66 8.18L0.66 8.18L0.66 8.18Q0.66 7.11 1.02 6.21L1.02 6.21L1.02 6.21Q1.37 5.31 2.00 4.65L2.00 4.65L2.00 4.65Q2.63 4.00 3.50 3.64L3.50 3.64L3.50 3.64Q4.37 3.28 5.40 3.28L5.40 3.28L5.40 3.28Q5.98 3.28 6.68 3.41L6.68 3.41L6.68 3.41Q7.38 3.54 8.09 3.95L8.09 3.95L8.15 5.99L7.27 5.99L6.99 4.33L6.99 4.33Q6.62 4.14 6.27 4.07L6.27 4.07L6.27 4.07Q5.92 3.99 5.56 3.99L5.56 3.99L5.56 3.99Q4.86 3.99 4.24 4.26L4.24 4.26L4.24 4.26Q3.63 4.54 3.16 5.06L3.16 5.06L3.16 5.06Q2.70 5.59 2.44 6.37L2.44 6.37L2.44 6.37Q2.17 7.15 2.17 8.18L2.17 8.18L2.17 8.18Q2.17 9.20 2.42 9.97L2.42 9.97L2.42 9.97Q2.66 10.75 3.09 11.28L3.09 11.28L3.09 11.28Q3.53 11.82 4.14 12.09L4.14 12.09L4.14 12.09Q4.75 12.36 5.46 12.36L5.46 12.36L5.46 12.36Q5.87 12.36 6.29 12.27L6.29 12.27L6.29 12.27Q6.71 12.18 7.13 11.98L7.13 11.98L7.41 10.36ZM11.02 8.18L11.02 8.18L11.02 8.18Q11.02 8.96 11.18 9.71L11.18 9.71L11.18 9.71Q11.34 10.46 11.68 11.05L11.68 11.05L11.68 11.05Q12.01 11.63 12.54 12.00L12.54 12.00L12.54 12.00Q13.06 12.36 13.79 12.36L13.79 12.36L13.79 12.36Q14.52 12.36 15.04 12.00L15.04 12.00L15.04 12.00Q15.57 11.63 15.90 11.05L15.90 11.05L15.90 11.05Q16.24 10.46 16.40 9.71L16.40 9.71L16.40 9.71Q16.56 8.96 16.56 8.18L16.56 8.18L16.56 8.18Q16.56 7.39 16.40 6.64L16.40 6.64L16.40 6.64Q16.24 5.88 15.90 5.29L15.90 5.29L15.90 5.29Q15.57 4.70 15.04 4.35L15.04 4.35L15.04 4.35Q14.52 3.99 13.79 3.99L13.79 3.99L13.79 3.99Q13.06 3.99 12.54 4.35L12.54 4.35L12.54 4.35Q12.01 4.70 11.68 5.29L11.68 5.29L11.68 5.29Q11.34 5.88 11.18 6.64L11.18 6.64L11.18 6.64Q11.02 7.39 11.02 8.18ZM13.79 3.28L13.79 3.28L13.79 3.28Q14.60 3.28 15.37 3.59L15.37 3.59L15.37 3.59Q16.14 3.91 16.74 4.53L16.74 4.53L16.74 4.53Q17.35 5.15 17.71 6.07L17.71 6.07L17.71 6.07Q18.07 6.99 18.07 8.18L18.07 8.18L18.07 8.18Q18.07 9.32 17.71 10.23L17.71 10.23L17.71 10.23Q17.35 11.14 16.74 11.77L16.74 11.77L16.74 11.77Q16.14 12.40 15.37 12.73L15.37 12.73L15.37 12.73Q14.60 13.06 13.79 13.06L13.79 13.06L13.79 13.06Q12.98 13.06 12.20 12.75L12.20 12.75L12.20 12.75Q11.42 12.43 10.82 11.82L10.82 11.82L10.82 11.82Q10.22 11.20 9.86 10.29L9.86 10.29L9.86 10.29Q9.49 9.38 9.49 8.18L9.49 8.18L9.49 8.18Q9.49 7.03 9.86 6.12L9.86 6.12L9.86 6.12Q10.23 5.21 10.84 4.58L10.84 4.58L10.84 4.58Q11.44 3.95 12.21 3.61L12.21 3.61L12.21 3.61Q12.98 3.28 13.79 3.28ZM21.08 9.14L23.86 9.14L22.48 5.10L21.08 9.14ZM26.25 12.15L27.30 12.28L27.30 12.85L23.49 12.85L23.49 12.28L24.86 12.11L24.08 9.80L20.86 9.80L20.08 12.10L21.43 12.28L21.43 12.85L18.21 12.85L18.21 12.28L19.40 12.10L22.40 3.49L23.24 3.49L26.25 12.15Z"></path></g><defs data-v-fde0c5aa=""><linearGradient data-v-fde0c5aa="" gradientTransform="rotate(25)" id="cdf184c8-c07d-4570-8a49-4b79722cf67a" x1="0%" y1="0%" x2="100%" y2="0%"><stop data-v-fde0c5aa="" offset="0%" stop-color="#1E0B36" stop-opacity="1"></stop><stop data-v-fde0c5aa="" offset="100%" stop-color="#CA3782" stop-opacity="1"></stop></linearGradient></defs><g data-v-fde0c5aa="" id="50bf74ae-e0d9-4507-b4f2-2554a19f0beb" stroke="none" fill="url(#cdf184c8-c07d-4570-8a49-4b79722cf67a)" transform="matrix(2.297181510497978,0,0,2.297181510497978,40,113.24509583203235)"><path d="M9.571 20.464l8.064 4.47 8.065-4.47v-8.939l-8.065-4.469-8.064 4.469z"></path><path d="M32 0H0v32h32l-5.054-5.172H5.054V5.172h21.892z"></path></g><!----></svg>